<svg version="1" xmlns="http://www.w3.org/2000/svg" width="400" height="398.667" viewBox="0 0 300 299"><path d="M224.5 1.4c-14 3.4-24.3 13-37 34.6-14.9 25.1-27.8 37.7-46.4 45.2-5.5 2.2-6.6 2.3-58.1 2.8l-52.5.5-6.7 3.3C-2.4 100.7-7.9 145 14 166.9c6.3 6.3 12.2 9.1 21.7 10.2 4.2.6 8.6 1.5 9.7 2.1 2.8 1.4 7.5 5.8 8.9 8.3.9 1.4 1.3 16.1 1.7 50 .5 52 .4 50.8 6.2 56.2 5.1 4.8 8.3 5.3 31.5 5.3 19.1 0 22.3-.3 25.8-1.9 8-3.7 11.5-10.1 11.5-21.1 0-7.9-1.3-11.7-5.9-17.4l-3.1-3.9v-71.4l2.5-2.7c2.8-3 4-3.1 12-1.1 13.2 3.5 27.3 13.3 37.5 26.1 3.2 4 9.4 13.3 13.7 20.6 9.4 15.9 18.4 25.8 28.3 30.9 6.3 3.3 6.9 3.4 18 3.4 11 0 11.8-.1 17.5-3.2 22.1-11.5 36.9-39.6 44.7-84.9 1.9-11.1 2.2-16.7 2.2-40.4.1-29.2-.6-36.9-5.1-57-11.8-53.3-37.8-81.1-68.8-73.6zm19.1 19.7c13.3 6.4 26.5 30.9 32.3 59.9 3.7 19 4.5 28.1 4.5 50.5 0 24.4-1.5 37.9-6.3 56.8-18.2 71.8-60.7 73.1-79.6 2.4-4-14.9-5.1-13.7 12.8-13.7 14.7 0 15.4-.1 21.2-2.9 14.9-7.1 23.7-23 23.8-43.1 0-19.9-8.6-36.1-23.1-43.2-6.5-3.2-7-3.3-21.9-3.7-17-.4-16.1.2-14.2-7.9 3.6-15.5 10.4-32.2 16.7-41.4 3.8-5.5 11.4-12.5 15.5-14.3 4.8-2.1 13.3-1.9 18.3.6zM172 85.9c0 .4-.7 7.1-1.6 14.7-1.8 15.7-1.5 54.6.6 66.6 1.7 10.2 1.5 10.3-6.7 4.8-11.9-8-27.4-13-40.6-13-8 0-13.7-4.3-17.9-13.5-1.9-4.2-2.3-6.6-2.3-15 .1-8.9.4-10.6 2.9-15.8 4.2-8.7 8.2-11.2 19.4-12.1 5-.4 11.6-1.3 14.8-2.2 7.2-1.8 20.5-8.1 25.9-12.2 4.2-3.2 5.5-3.8 5.5-2.3zm-71.5 20.8c-3.8 5.6-6.5 15.4-6.5 23.7 0 8.6 1.8 15.6 5.8 23l3 5.6h-34c-33.1 0-34.1-.1-37.9-2.2-12.6-7.1-16-31.5-6.4-45.9 5.3-8 4.6-7.9 43.8-7.9h34.8l-2.6 3.7zm123.2-.8c2.6 1.9 5.1 5 6.9 8.8 2.6 5.2 2.9 6.8 2.9 15.8 0 11-2 17.2-7.3 22.8-4.9 5.2-6.9 5.7-22.6 5.7H189l-.7-2.8c-1-3.4-1-49.1-.1-51.5.7-1.5 2.4-1.7 16.1-1.7h15.4l4 2.9zM92 178h11.5l-.3 38.2c-.4 42-.2 43.1 5.4 51.1 2.5 3.5 3.4 5.8 3.4 8.7v4H75.1l-.3-46.3c-.3-45.5-.3-46.3-2.5-51.1-1.3-2.7-2.3-5.1-2.3-5.4 0-.2 2.4-.2 5.3.2 2.8.3 10.4.6 16.7.6z" fill="#353535"/></svg>