<svg width="587" height="200" viewBox="0 0 587 114" fill="" xmlns="http://www.w3.org/2000/svg">
<path d="M0.933333 0.818481C0.4 1.21848 0 9.88515 0 19.8851C0 35.8851 0.266667 38.5518 2.53333 41.4852C5.06667 44.6852 5.06667 44.6851 2.53333 46.2851C0 46.0518 1.00001 50.5184 1.00001 79.0518C1.00001 100.918 1 110.052 1.00001 111.552C4.00001 111.552 90.8 112.552 93.0667 110.285C95.2 108.152 95.3333 80.4185 93.2 79.2185C92.4 78.6851 78.8 78.2851 62.8 78.2851L33.8667 78.4185L33.6 75.2185L33.3333 72.1518H62.6667C78.8 72.1518 92.5333 71.7518 93.3333 71.2185C94.1333 70.6851 94.6667 64.4185 94.6667 55.8851C94.6667 42.8185 94.4 41.2185 92.1333 39.8851C90.6667 39.0851 80.4 38.5518 68.2667 38.5518C48.8 38.5518 46.9333 38.2851 44.6667 35.8851C42.2667 33.2185 42.4 33.2185 66.8 33.2185C84.2667 33.2185 92 32.6852 93.0667 31.6185C95.2 29.4852 95.2 3.61848 93.0667 1.48515C91.8667 0.285146 79.7333 -0.114853 46.6667 -0.114853C22 -0.114853 1.33333 0.285148 0.933333 0.818481ZM90.6667 16.5518V29.2185H61.7333H32.8L39.3333 35.8851L45.8667 42.5518H68.2667H90.6667V55.8851V69.2185H63.0667H35.3333L19.7333 53.6185L4 37.8851V20.9518V3.88515H47.3333H90.6667V16.5518ZM30.6667 78.1518V81.2185H60.6667H90.6667V94.5518V107.885H47.3333H4V78.2851V48.5518L17.3333 61.8851C26.4 70.9518 30.6667 76.1518 30.6667 78.1518Z" fill="#fb1"/>
<path d="M109.106 -0.448242C108.04 0.75175 107.84 8.21846 108.106 17.6851L108.506 32.2184L127.573 32.6184L146.506 33.0184V42.9629C148.34 44.9629 147.34 43.9629 150.106 46.4851C152.606 49.6517 154.34 51.4629 151.84 49.5517C150.84 48.7873 147.506 45.5598 146.506 45.5598C146.773 46.6598 146.506 66.6185 146.506 81.5518C146.506 113.685 144.106 110.552 164.373 110.552C185.606 110.552 179.606 112.052 180.773 92.4851C180.5 78.0518 179.706 77.2851 177.306 74.0851C174.506 70.3518 177.073 71.5518 179.606 71.5518C180.073 65.5518 180.106 63.5518 179.606 46.5518L179.506 31.5517L189.606 31.5518H198.606C209.106 31.5518 218.106 31.8184 219.106 31.5518C219.373 29.6851 219.106 6.55176 219.106 0.0517578C208.106 -0.948242 112.106 0.0517578 109.106 -0.448242ZM215.84 16.2184V28.8851H196.506H177.173V48.4851V68.2184L163.84 54.8851C150.64 41.8185 150.506 41.5517 150.506 35.2851V28.8851H131.173H111.84V16.2184V3.55173H163.84H215.84V16.2184ZM177.173 93.2851V107.552H163.84H150.506V79.8184V52.2184L163.84 65.6851L177.173 79.1517V93.2851Z" fill="#fb2"/>
<path d="M234.133 0.151917C233.067 1.21858 233.133 9.48525 233.133 20.5519C233.133 35.3519 232.4 35.3519 234.933 38.5519C237.067 41.2186 238.8 42.5518 237.333 42.5518C235.333 42.0516 233.533 43.3519 233.133 44.5519C233.133 48.5518 233 108.552 233 110.552C234.067 111.619 241.333 111.552 250 111.552C258.667 111.552 264.5 112.052 265.067 110.285C267.5 109.552 266.667 102.685 266.667 89.4853C266.667 71.7519 266.8 70.2853 269.067 71.2186C270.267 71.7519 277.467 72.0186 285.067 71.8853L298.667 71.7519V90.2853C298.667 102.819 299.2 109.219 300.267 110.285C302.4 112.419 328.267 112.419 330.4 110.285C332.933 107.752 332.667 3.48525 330.133 1.35191C328.933 0.285247 323.333 -0.11475 313.867 0.151917L299.333 0.551918L298.933 19.4853L298.533 38.5519H291.6C284.667 38.5519 284.4 38.4186 275.733 29.4853L266.8 20.5519L266.4 10.5519L266 0.551918L251.333 0.151917C241.067 -0.11475 235.333 -1.04808 234.133 0.151917ZM262.667 12.8186V21.8852L272.933 32.1519L283.333 42.5519H292.933H302.667V23.2186V3.88525H315.333H328V55.8853V107.885H315.333H302.667V88.5519V69.2186H287.067H271.6L254.4 52.2853L237.333 35.3519V19.6186V3.88525H250H262.667V12.8186ZM262.667 88.8186V107.885H250H237.333V76.2853V44.5519L250 57.2186L262.667 69.8853V88.8186Z" fill="#fb3"/>
<path d="M385.067 2.41851C375.2 5.61851 364 12.8185 364 15.8852C364 17.2185 362.667 18.5518 360.933 19.0852C359.2 19.4852 356.267 22.6852 353.733 26.8185C338.133 52.9518 345.333 85.3518 370.4 102.152C381.467 109.619 387.333 111.219 402.667 111.219C413.6 111.085 416.4 110.685 423.067 107.619C433.733 102.552 438.667 98.8185 438.667 95.6185C438.667 93.7518 439.333 93.2185 440.667 93.7518C443.6 94.8185 447.733 90.1518 452.133 80.6852C456.8 70.8185 458.4 62.9518 457.733 53.2185C455.6 17.0852 419.067 -8.38149 385.067 2.41851ZM422.933 8.28518C444.8 18.9518 457.867 43.0852 453.6 64.6852C452 72.4185 447.2 83.8852 443.333 88.5518C441.333 91.0852 440.933 90.8185 431.867 81.7518L422.4 72.2852L424.667 67.8852C429.733 58.1518 426.267 42.6852 417.467 36.2852C409.6 30.4185 401.2 29.2185 391.2 32.6852L384.933 34.8185L375.733 25.4852L366.4 16.2852L373.2 12.0185C383.333 5.48518 389.6 3.88518 403.467 4.28518C413.467 4.55185 416.8 5.21851 422.933 8.28518ZM371.867 31.0852L380.4 39.6185L378.133 46.0185C374.8 56.0185 375.867 64.0185 381.733 72.0185C388.133 80.8185 403.467 84.2852 413.2 79.2185L417.733 76.9518L427.067 86.2852L436.4 95.6185L429.867 99.8852C415.067 109.219 394.267 110.552 379.2 103.219C369.2 98.2852 358.933 88.0185 354 78.0185C349.067 67.7518 347.867 51.6185 351.333 40.9518C353.867 32.9518 360 22.5518 362 22.5518C362.8 22.5518 367.2 26.4185 371.867 31.0852ZM412.267 37.4852C419.467 41.6185 423.067 47.7518 423.067 56.4185C423.067 60.1518 422.133 65.0852 421.067 67.2185C420 69.4852 419.333 72.0185 419.6 72.9518C420 73.8852 419.467 74.2852 418.4 73.8852C417.467 73.4852 414.4 74.2852 411.6 75.7518C405.467 78.9518 396.267 78.4185 390 74.5518C381.2 69.2185 377.467 55.4852 382.133 46.2852C383.333 44.0185 384 41.2185 383.6 39.8852C383.2 38.1518 383.6 37.7518 385.333 38.1518C386.667 38.5518 389.467 37.8852 391.467 36.6852C397.067 33.7518 406 34.0185 412.267 37.4852Z" fill="#fb4"/>
<path d="M510.233 1.05188C509.167 2.11855 507.4 2.91855 505.267 2.51855C496.733 0.918547 481.933 12.1185 477 23.9852C474.467 30.1185 474.2 42.3852 476.467 49.8519C478.733 57.5852 487.4 67.1852 495.667 70.9185C501.933 73.8519 503.933 74.1185 526.733 74.1185C547.8 74.1185 551.133 74.3852 551.933 76.2519C552.333 77.4519 551.933 78.9185 550.867 79.4519C549.933 80.1185 533 80.6519 513.133 80.7852C493.4 80.7852 475.533 81.6518 475 82.0518C474.333 82.4518 475 88.7852 475 96.7852C475 110.119 473.933 111.718 476.467 113.052C478.333 114.118 493 114.119 520.067 113.852C557.933 113.452 559.933 113.319 565.133 110.519C573.933 105.852 578.6 101.185 582.467 93.3185C587.133 83.8519 588 69.5518 585 63.5518C584 61.0852 581.233 58.8519 579.833 56.6185C577.333 52.6185 568.6 43.9852 563.267 41.8519C561.267 41.1852 548.6 40.3852 535 40.1185C506.333 39.8519 508.333 39.9852 508.333 37.4519C508.333 35.8519 510.333 35.4519 518.467 35.4519C523.933 35.4519 529.8 34.7852 531.267 33.9852C535 33.9852 540.867 33.8519 555.533 33.9852C571.133 34.2519 578.733 35.4852 582.233 33.9852C582.233 30.4852 583.733 7.85188 581.4 1.05188C577.233 1.05188 513.233 -0.44812 510.233 1.05188ZM579 16.1185V30.5185H558.733H535L524.333 16.1185L511.667 3.45188H545.4H579V16.1185ZM519.133 17.3519C525.533 23.7519 529.667 29.9852 529.667 30.5185C529.667 31.0519 524.867 31.4519 519.133 31.4519C508.333 31.4519 504.333 33.0519 504.333 37.4519C504.333 38.3852 505.267 40.2519 506.467 41.3186C508.2 43.0519 512.6 43.4519 533.133 43.4519C555 43.4519 558.333 43.7185 562.867 46.1185C568.733 49.0519 576.833 55.8519 578.167 60.7852C579.5 62.5519 580.267 64.2519 581 65.5519C582.5 67.5519 583.133 70.4852 583 77.5518C583 88.3518 578.2 96.9186 570.333 102.919C561.533 109.585 558.6 109.985 517.4 110.119H479V96.7852V83.4519L516.6 83.1852L554.333 82.7852L555.533 79.0519C556.6 76.1185 556.333 74.9185 554.6 73.0519C552.6 71.0519 548.6 70.6519 525.933 70.1185C497.133 69.4519 495.4 68.9185 487.533 60.5185C476.067 48.3852 475 31.5852 484.867 17.9852C489.4 11.8519 501.133 4.35188 506.333 4.35188C507.933 4.35188 512.067 10.2852 519.133 17.3519Z" fill="#fb5"/>
</svg>
