<?xml version="1.0" encoding="UTF-8"?>
<svg version="1.1" xmlns="http://www.w3.org/2000/svg" width="50" height="50">
<path d="M0 0 C6.29671422 3.64546613 10.25669741 9.1292571 12.5 16 C13.52913515 24.87222827 13.0486814 32.74403202 7.5 40 C1.70011527 45.61279168 -4.07911606 48.28314107 -12.1875 48.4375 C-19.92067973 48.2998413 -25.89547136 46.7246796 -31.375 41.0625 C-37.56741076 33.20290173 -38.52404309 25.88471072 -37.5 16 C-35.36807613 8.57297219 -31.1945133 3.75298473 -24.5 0 C-16.99776845 -3.63173353 -7.55303575 -3.4040237 0 0 Z " fill="#B9B7B6" transform="translate(37.5,2)"/>
<path d="M0 0 C3.81168156 3.02979816 6.14477502 6.4854531 6.73828125 11.45703125 C6.36299411 14.55193166 5.66295557 15.32461071 3.25 17.25 C-2.33913247 21.06841616 -8.04139902 21.01138059 -14.5625 19.9375 C-18.42409831 18.53056108 -22.6045501 16.8954499 -25.5625 13.9375 C-25.44788193 8.20659663 -23.74960963 5.3906963 -20.03515625 1.3203125 C-15.19704387 -3.22263653 -5.85773419 -1.74704353 0 0 Z " fill="#FDFDFD" transform="translate(34.5625,29.0625)"/>
<path d="M0 0 C2.96045738 2.59040021 3.85478339 4.12870035 4.5 8 C3.86089908 11.83460553 2.89357127 13.40320527 0 16 C-3.94929279 17.14888518 -6.02958859 17.43129396 -9.8125 15.75 C-12.69234659 13.44612273 -13.89454529 11.80848609 -14.375 8.125 C-13.91377729 4.28147742 -12.66559892 2.74399889 -10 0 C-6.72154211 -1.63922894 -3.40869581 -0.97680018 0 0 Z " fill="#FCFCFC" transform="translate(30,9)"/>
<path d="M0 0 C2.97 0 5.94 0 9 0 C8.67 0.99 8.34 1.98 8 3 C5.36 3 2.72 3 0 3 C0 2.01 0 1.02 0 0 Z " fill="#CECCCB" transform="translate(21,25)"/>
</svg>
